<?xml version="1.0" encoding="utf-8"?>
<!-- Generator: Adobe Illustrator 28.0.0, SVG Export Plug-In . SVG Version: 6.00 Build 0)  -->
<svg version="1.1" id="Layer_1" xmlns="http://www.w3.org/2000/svg" xmlns:xlink="http://www.w3.org/1999/xlink" x="0px" y="0px"
	 viewBox="0 0 50 82" style="enable-background:new 0 0 50 82;" xml:space="preserve">
<path d="M9.5,10c0.1,0,0.1,0,0.2-0.1c0,0,0,0,0,0c-0.4,3-0.9,7.1-1.6,11.8l-5,43.1L3,65.3l0,0.1c0,0.5,0,1.3,0.2,2.1
	c0,0.1,0.1,0.2,0.1,0.3c0.3,0.9,0.7,2.1,1.3,3.5c0.2,0.4,0.3,0.7,0.5,1.1c0.6,1.1,5,9.2,15.1,9.4h1.2c0.2,0,0.8-0.1,1.3-0.5
	c0.1-0.1,0.2-0.1,0.3-0.2c1.1-0.8,3-2.7,6.3-6.9l3.4-4.6l-2.9,0.8c0,0-5.2,10.7-8.6,10.3c-3.4-0.4-4-2.6-3-10.6l0.5-4.4l0-0.4
	l2-15.8c0,0,1.5,0.4,3,0.7h0c0.1,0,0.3,0.1,0.5,0.1c1,0.2,3.7,0.4,6.7-0.2c0.9-0.2,1.8-0.5,2.7-0.8c1-0.4,2.1-0.9,3-1.4c0,0,0,0,0,0
	c1.2-0.7,2.2-1.4,3.2-2.2c3.8-2.9,6.1-6.2,7.4-9.6c0.6-1.5,1-3.1,1.3-4.6c0-0.1,0-0.1,0-0.2c0,0,0,0,0,0c0.6-3.9,0.4-7.2-0.3-10
	c-0.3-1.2-0.7-2.3-1.1-3.3c-0.4-1-0.9-2-1.5-2.8c0,0,0,0,0,0c-0.7-1.2-1.5-2.2-2.3-3.1c-2.7-3.1-5.8-4.6-7.6-5.2
	c-1.1-0.4-2.3-0.7-3.5-0.9C32.2,5.8,32,5.7,32,5.7l0,0c-1.6-0.3-3.4-0.4-5.3-0.4h-0.1c0,0,0-0.1,0-0.3c0.1-0.9,0.5-2.9,2.4-4.3h0
	c0,0,0-0.1,0-0.1c0-0.5-0.7-0.6-1.6-0.5L24.3,0c0,0-0.9,0.3-2.1,0.7c-3.7,1-5.6,1-9.6,0.8c-2.5-0.1-3.1-0.3-3.1-0.3L9.4,2.4
	c0,0,1.2,0.6,1,2.1L10.2,6h0c0,0-0.1,0.4-0.4,2.8h0c-1.1,0.6-2.1,1.2-3,1.9h0c-2.2,1.7-3.7,3.7-4.8,5.6c-1,1.7-1.5,3.3-1.8,4.3
	c-0.2,0.6-0.3,1-0.3,1l1.5-0.6C2.2,13.1,8.4,10.5,9.5,10z M26.2,8.9L26.2,8.9l0.2-1.7c0,0,3.7-0.6,6.8,1.7c0.3,0.2,0.6,0.5,0.9,0.8
	c1.1,1.1,2.8,3.8,3.1,9c0.1,3.2,0,8.9-1.9,15.5c-2.1,7.7-5.5,10.7-8,11.5c-2.1,0.7-5.6,0.2-6,0.1L26.2,8.9L26.2,8.9z"/>
</svg>
